<?xml version="1.0" encoding="utf-8"?>
<!-- Generator: Adobe Illustrator 22.0.1, SVG Export Plug-In . SVG Version: 6.00 Build 0)  -->
<svg version="1.1" id="Layer_1" xmlns="http://www.w3.org/2000/svg" xmlns:xlink="http://www.w3.org/1999/xlink" x="0px" y="0px"
	 viewBox="0 0 120 25" style="enable-background:new 0 0 120 25;" xml:space="preserve">
<style type="text/css">
	.st0{fill:#FF565E;}
</style>
<g>
	<g id="APP_LOGO_10_">
		<g>
			<g>
				<g>
					<g>
						<path class="st0" d="M34.3,7.7c-0.7-0.7-1.8-1-3.1-1h-4.7v12.1h2v-4.6h2.7c1.3,0,2.4-0.3,3.1-1c0.8-0.7,1.1-1.6,1.1-2.7
							C35.5,9.2,35.1,8.3,34.3,7.7z M32.9,11.9c-0.4,0.4-0.9,0.6-1.7,0.6h-2.7V8.2h2.7c0.7,0,1.3,0.2,1.7,0.6
							c0.4,0.4,0.6,0.9,0.6,1.5C33.5,11,33.3,11.5,32.9,11.9z"/>
						<path class="st0" d="M41.2,6.6h-1.9l-4.4,12.1h2l1-2.8h4.7l1,2.8h2L41.2,6.6z M38.4,14.2L40.2,9h0l1.8,5.2H38.4z"/>
						<path class="st0" d="M54.6,13.2c-0.7-0.6-1.7-1.1-3-1.4c-1-0.3-1.7-0.6-2.1-0.9c-0.4-0.3-0.6-0.7-0.6-1.1
							c0-0.5,0.2-0.9,0.6-1.2c0.4-0.3,1-0.5,1.7-0.5c0.8,0,1.4,0.2,1.8,0.6c0.4,0.4,0.6,0.9,0.6,1.5h1.9l0-0.1c0-1-0.4-1.9-1.2-2.6
							c-0.8-0.7-1.9-1.1-3.2-1.1c-1.3,0-2.3,0.3-3.1,0.9c-0.8,0.6-1.2,1.4-1.2,2.4c0,0.9,0.4,1.7,1.1,2.3c0.7,0.6,1.8,1.1,3.1,1.4
							c0.9,0.2,1.6,0.5,2,0.8c0.4,0.3,0.6,0.7,0.6,1.2c0,0.5-0.2,0.9-0.6,1.2c-0.4,0.3-1,0.4-1.7,0.4c-0.8,0-1.5-0.2-2-0.5
							c-0.5-0.4-0.8-0.9-0.8-1.6h-1.9l0,0c0,1.2,0.4,2.1,1.4,2.8c1,0.7,2.1,1,3.3,1c1.3,0,2.4-0.3,3.2-0.9c0.8-0.6,1.2-1.4,1.2-2.4
							C55.6,14.6,55.2,13.8,54.6,13.2z"/>
						<path class="st0" d="M65.2,13.2c-0.7-0.6-1.7-1.1-3-1.4c-1-0.3-1.7-0.6-2.1-0.9c-0.4-0.3-0.6-0.7-0.6-1.1
							c0-0.5,0.2-0.9,0.6-1.2c0.4-0.3,1-0.5,1.7-0.5c0.8,0,1.4,0.2,1.8,0.6c0.4,0.4,0.6,0.9,0.6,1.5h1.9l0-0.1c0-1-0.4-1.9-1.2-2.6
							c-0.8-0.7-1.9-1.1-3.2-1.1c-1.3,0-2.3,0.3-3.1,0.9c-0.8,0.6-1.2,1.4-1.2,2.4c0,0.9,0.4,1.7,1.1,2.3c0.7,0.6,1.8,1.1,3.1,1.4
							c1,0.2,1.6,0.5,2,0.8c0.4,0.3,0.6,0.7,0.6,1.2c0,0.5-0.2,0.9-0.6,1.2c-0.4,0.3-1,0.4-1.7,0.4c-0.8,0-1.5-0.2-2-0.5
							c-0.5-0.4-0.8-0.9-0.8-1.6h-1.9l0,0c0,1.2,0.4,2.1,1.4,2.8c1,0.7,2.1,1,3.3,1c1.3,0,2.4-0.3,3.2-0.9c0.8-0.6,1.2-1.4,1.2-2.4
							C66.2,14.6,65.9,13.8,65.2,13.2z"/>
						<path class="st0" d="M70.4,17.1v-3.8h5.3v-1.6h-5.3V8.2h6.1V6.6h-8.1v12.1h8.1v-1.6H70.4z"/>
						<path class="st0" d="M85.1,14.7c0,0.8-0.2,1.5-0.6,1.9c-0.4,0.5-1.1,0.7-1.9,0.7s-1.5-0.3-2-1c-0.5-0.7-0.7-1.5-0.7-2.5v-2.3
							c0-1,0.2-1.8,0.7-2.5c0.5-0.6,1.1-1,2-1c0.8,0,1.5,0.2,1.9,0.7c0.4,0.5,0.7,1.1,0.7,1.9H87l0-0.1c0-1.3-0.4-2.3-1.2-3
							c-0.8-0.7-1.9-1.1-3.4-1.1c-1.4,0-2.5,0.5-3.4,1.4c-0.9,1-1.3,2.2-1.3,3.6v2.3c0,1.5,0.4,2.7,1.3,3.6c0.9,1,2,1.4,3.4,1.4
							c1.4,0,2.5-0.4,3.3-1.1c0.8-0.8,1.2-1.8,1.2-3l0,0H85.1z"/>
						<path class="st0" d="M96.2,6.6v8.1c0,0.8-0.2,1.5-0.7,1.9c-0.5,0.4-1.2,0.6-2,0.6c-0.8,0-1.4-0.2-1.9-0.6
							c-0.5-0.4-0.7-1.1-0.7-1.9V6.6h-2v8.1c0,1.3,0.4,2.4,1.3,3.1c0.9,0.7,2,1.1,3.4,1.1c1.4,0,2.5-0.4,3.4-1.1
							c0.9-0.7,1.3-1.7,1.3-3.1V6.6H96.2z"/>
						<path class="st0" d="M109.5,17.7c-0.1-0.3-0.1-0.7-0.1-1v-1c0-0.7-0.1-1.3-0.4-1.8c-0.3-0.5-0.8-0.8-1.5-1.1
							c0.6-0.3,1.1-0.6,1.4-1.1c0.3-0.4,0.5-1,0.5-1.6c0-1.1-0.4-2-1.1-2.6c-0.7-0.6-1.8-0.9-3.1-0.9h-4.5v12.1h2v-5h2.7
							c0.6,0,1.1,0.2,1.5,0.6c0.4,0.4,0.5,0.8,0.5,1.5v1c0,0.4,0,0.8,0.1,1.2c0.1,0.4,0.2,0.7,0.4,0.9h2.1v-0.2
							C109.7,18.3,109.5,18.1,109.5,17.7z M106.7,11.6c-0.4,0.3-1,0.5-1.8,0.5h-2.3V8.2h2.4c0.7,0,1.3,0.2,1.7,0.5
							c0.4,0.3,0.5,0.8,0.5,1.4C107.3,10.8,107.1,11.3,106.7,11.6z"/>
						<path class="st0" d="M113.9,17.1v-3.8h5.3v-1.6h-5.3V8.2h6.1V6.6h-8.1v12.1h8.1v-1.6H113.9z"/>
					</g>
				</g>
			</g>
		</g>
	</g>
	<g>
		<g>
			<g>
				<path class="st0" d="M18.6,12.5c0,5.1-4.2,9.3-9.3,9.3c-4.2,0-7.7-2.8-8.9-6.6H2c1.1,2.9,3.9,5,7.3,5c4,0,7.4-3.1,7.7-7H0
					c0,0,0,0,0,0c0-0.2,0-0.5,0-0.7c0-0.3,0-0.6,0-0.8c0-0.5,0.1-1,0.3-1.5c1.1-4,4.7-6.9,9-6.9c4.1,0,7.6,2.7,8.8,6.4h-1.6
					c-1.1-2.9-3.9-4.9-7.2-4.9c-3.5,0-6.4,2.3-7.4,5.4c-0.1,0.5-0.3,1-0.3,1.5h17C18.6,12,18.6,12.2,18.6,12.5z"/>
			</g>
			<circle class="st0" cx="9.3" cy="16.8" r="1.4"/>
		</g>
	</g>
</g>
</svg>
